<?xml version="1.0" encoding="UTF-8" standalone="no"?><svg xmlns="http://www.w3.org/2000/svg" xmlns:xlink="http://www.w3.org/1999/xlink" fill="#000000" height="429.3" preserveAspectRatio="xMidYMid meet" version="1" viewBox="2336.0 490.1 500.3 429.3" width="500.3" zoomAndPan="magnify"><linearGradient gradientTransform="rotate(29.784 -1341.49 2423.058)" gradientUnits="userSpaceOnUse" id="a" x1="1224.341" x2="1258.831" xlink:actuate="onLoad" xlink:show="other" xlink:type="simple" y1="-801.71" y2="-846.053"><stop offset="0" stop-color="#18ef15"/><stop offset="1" stop-color="#18ef15" stop-opacity="0.5"/></linearGradient><circle cx="2514.585" cy="887.45" fill="url(#a)" r="31.913"/><linearGradient gradientTransform="rotate(29.784 -1341.49 2423.058)" gradientUnits="userSpaceOnUse" id="b" x1="1416.667" x2="1451.156" xlink:actuate="onLoad" xlink:show="other" xlink:type="simple" y1="-911.776" y2="-956.12"><stop offset="0" stop-color="#18ef15"/><stop offset="1" stop-color="#18ef15" stop-opacity="0.5"/></linearGradient><circle cx="2736.178" cy="887.45" fill="url(#b)" r="31.913"/><linearGradient gradientTransform="translate(904.8 659.2)" gradientUnits="userSpaceOnUse" id="c" x1="1431.996" x2="1889.993" xlink:actuate="onLoad" xlink:show="other" xlink:type="simple" y1="-133.63" y2="158.815"><stop offset="0" stop-color="#18ef15"/><stop offset="0.5" stop-color="#18ef15" stop-opacity="0.1"/><stop offset="0.963" stop-color="#18ef15" stop-opacity="0.933"/><stop offset="1" stop-color="#18ef15"/></linearGradient><path d="M2834.747,624.091c-1.127-1.448-2.859-2.295-4.694-2.295l-404.714-0.001l-32.229-127.231 c-0.669-2.639-3.044-4.488-5.766-4.488h-45.395c-3.285,0-5.948,2.663-5.948,5.948s2.663,5.948,5.948,5.948h40.765l32.227,127.223 c0.001,0.003,0.001,0.006,0.002,0.008l49.618,195.877c0.042,0.167,0.092,0.332,0.148,0.493c0.016,0.047,0.037,0.092,0.055,0.138 c0.041,0.109,0.081,0.219,0.128,0.325c0.052,0.118,0.111,0.232,0.171,0.346c0.016,0.031,0.03,0.064,0.047,0.095 c0.073,0.132,0.15,0.259,0.231,0.384c0.007,0.012,0.014,0.024,0.022,0.036c0.083,0.126,0.172,0.247,0.264,0.366 c0.007,0.01,0.014,0.02,0.022,0.03c0.087,0.111,0.18,0.218,0.275,0.322c0.015,0.016,0.028,0.033,0.042,0.049 c0.086,0.093,0.177,0.181,0.269,0.267c0.027,0.025,0.051,0.052,0.078,0.076c0.082,0.075,0.168,0.145,0.254,0.214 c0.04,0.033,0.078,0.068,0.12,0.099c0.076,0.059,0.156,0.112,0.234,0.168c0.054,0.038,0.107,0.078,0.162,0.114 c0.073,0.047,0.149,0.09,0.224,0.134c0.064,0.038,0.127,0.078,0.192,0.114c0.078,0.043,0.16,0.079,0.24,0.118 c0.065,0.031,0.128,0.065,0.194,0.095c0.097,0.043,0.198,0.08,0.297,0.117c0.051,0.019,0.101,0.041,0.152,0.059 c0.617,0.215,1.273,0.33,1.944,0.33c0.01,0,0.021-0.002,0.031-0.002h103.324c0.004,0,0.007,0,0.011,0c0.004,0,0.009,0,0.013,0 h103.359c0.003,0,0.007,0,0.01,0c0.003,0,0.006,0,0.009,0h103.354c2.722,0,5.098-1.849,5.766-4.488l49.617-195.877 C2836.27,627.426,2835.874,625.539,2834.747,624.091z M2792.345,752.38h-103.294l4.509-53.396h112.312L2792.345,752.38z M2677.112,752.38h-103.461l-4.509-53.396h112.478L2677.112,752.38z M2579.165,817.672l-4.509-53.396h101.452l-4.509,53.396 H2579.165z M2444.892,698.984h112.312l4.509,53.396h-103.294L2444.892,698.984z M2474.957,817.672l-13.526-53.395h101.285 l4.509,53.395H2474.957L2474.957,817.672z M2568.138,687.087l-4.509-53.396l123.504,0l-4.508,53.395H2568.138z M2551.69,633.692 l4.509,53.396h-114.32l-13.526-53.396H2551.69L2551.69,633.692z M2775.806,817.673h-92.268l4.509-53.396h101.285L2775.806,817.673z M2808.885,687.087h-114.321l4.509-53.395h123.337L2808.885,687.087z" fill="url(#c)"/><linearGradient gradientTransform="translate(839.899 620.848) scale(1.2096)" gradientUnits="userSpaceOnUse" id="d" x1="1550.975" x2="1416.244" xlink:actuate="onLoad" xlink:show="other" xlink:type="simple" y1="75.946" y2="-58.785"><stop offset="0" stop-color="#18ef15" stop-opacity="0.3"/><stop offset="1" stop-color="#18ef15"/></linearGradient><path d="M2744.316,599.488l-18.417,0.074c-2.235-8.395-5.596-16.327-9.91-23.63l12.977-13.082 c2.068-2.085,2.054-5.483-0.031-7.55l-26.531-26.317c-2.085-2.068-5.483-2.054-7.55,0.031l-12.977,13.083 c-7.337-4.255-15.297-7.552-23.709-9.719l-0.075-18.417c-0.012-2.937-2.424-5.329-5.36-5.317l-37.369,0.151 c-2.936,0.012-5.329,2.424-5.317,5.36l0.075,18.417c-8.395,2.235-16.327,5.596-23.63,9.91l-13.082-12.977 c-2.085-2.068-5.482-2.054-7.55,0.031l-26.317,26.531c-2.068,2.084-2.054,5.482,0.031,7.55l13.083,12.977 c-4.255,7.338-7.552,15.297-9.719,23.71l-18.417,0.074c-2.936,0.012-5.329,2.424-5.317,5.36l0.151,37.369 c0.012,2.937,2.424,5.329,5.36,5.317l18.417-0.074c2.235,8.395,5.596,16.327,9.91,23.63l-12.977,13.083 c-2.068,2.085-2.054,5.482,0.031,7.55l26.531,26.317c2.085,2.068,5.482,2.054,7.55-0.031l12.977-13.083 c7.338,4.255,15.297,7.552,23.709,9.719l0.075,18.417c0.012,2.937,2.424,5.329,5.36,5.317l37.369-0.151 c2.936-0.012,5.329-2.424,5.317-5.36l-0.075-18.417c8.395-2.235,16.327-5.596,23.63-9.91l13.083,12.977 c2.084,2.068,5.482,2.054,7.55-0.031l26.317-26.531c2.068-2.085,2.054-5.482-0.031-7.55l-13.083-12.977 c4.255-7.337,7.552-15.297,9.719-23.709l18.417-0.074c2.937-0.012,5.329-2.424,5.317-5.36l-0.151-37.369 C2749.664,601.869,2747.252,599.476,2744.316,599.488z" fill="url(#d)"/><linearGradient gradientTransform="rotate(29.784 -1341.49 2423.058)" gradientUnits="userSpaceOnUse" id="e" x1="1189.381" x2="1239.34" xlink:actuate="onLoad" xlink:show="other" xlink:type="simple" y1="-1079.472" y2="-1143.704"><stop offset="0" stop-color="#18ef15"/><stop offset="1" stop-color="#18ef15" stop-opacity="0.5"/></linearGradient><circle cx="2634.522" cy="623.954" fill="url(#e)" r="46.226"/></svg>